PathFileType  4	(X/Y/Z) C:\Users\antoi\Documents\MyRepositories\mobilecap\ResultsAnalysis
DataRate	CameraRate	NumFrames	NumMarkers	Units	OrigDataRate	OrigDataStartFrame	OrigNumFrames
100.0	100.0	4	51	mm	100.0	109	144
Frame#	Time	r_knee			r_shank_antsup			r_ankle			r_calc			r_5meta			r_toe			L_knee			L_shank_antsup			L_ankle			L_calc			L_5meta			L_toe			r_sh2			r_sh3			r_sh4			L_sh2			L_sh3			r_thigh1			r_thigh2			r_thigh3			r_thigh4			r_thigh5			L_thigh1			L_thigh2			L_thigh3			L_thigh4			r.ASIS			r.PSIS			L.ASIS			L.PSIS			C7			R_Shoulder			L_Shoulder			R_Sternum			L_Sternum			R_humerus			R_elbow_med			R_elbow_lat			R_forearm			R_wrist_radius			R_wrist_ulna			L_humerus			L_elbow_med			L_elbow_lat			L_forearm			L_wrist_radius			L_wrist_ulna			R_HJC			L_HJC			R_HJC_reg			L_HJC_reg			
		X1	Y1	Z1	X2	Y2	Z2	X3	Y3	Z3	X4	Y4	Z4	X5	Y5	Z5	X6	Y6	Z6	X7	Y7	Z7	X8	Y8	Z8	X9	Y9	Z9	X10	Y10	Z10	X11	Y11	Z11	X12	Y12	Z12	X13	Y13	Z13	X14	Y14	Z14	X15	Y15	Z15	X16	Y16	Z16	X17	Y17	Z17	X18	Y18	Z18	X19	Y19	Z19	X20	Y20	Z20	X21	Y21	Z21	X22	Y22	Z22	X23	Y23	Z23	X24	Y24	Z24	X25	Y25	Z25	X26	Y26	Z26	X27	Y27	Z27	X28	Y28	Z28	X29	Y29	Z29	X30	Y30	Z30	X31	Y31	Z31	X32	Y32	Z32	X33	Y33	Z33	X34	Y34	Z34	X35	Y35	Z35	X36	Y36	Z36	X37	Y37	Z37	X38	Y38	Z38	X39	Y39	Z39	X40	Y40	Z40	X41	Y41	Z41	X42	Y42	Z42	X43	Y43	Z43	X44	Y44	Z44	X45	Y45	Z45	X46	Y46	Z46	X47	Y47	Z47	X48	Y48	Z48	X49	Y49	Z49	X50	Y50	Z50	X51	Y51	Z51	

109	1.08000000	1266.06392	563.08597	-127.64149	1332.47332	489.20234	-133.90314	1384.23653	150.65520	-159.42171	1326.04457	78.40361	-211.74326	1519.84033	107.38034	-118.86789	1565.86432	159.48168	-177.96097	986.05323	546.10636	-434.15312	962.48084	455.12249	-450.05707	886.37888	130.49866	-362.99344	814.50246	84.19398	-292.98317	984.37726	46.99722	-412.32684	1056.67756	70.44945	-362.20224	1350.89497	380.49739	-110.70275	1264.77061	483.95525	-98.99742	1268.93008	367.89181	-95.87018	879.26075	478.09816	-421.75552	866.63064	357.63734	-408.97983	1214.52435	886.30083	-119.24007	1255.12917	783.71529	-119.39601	1212.33197	741.70623	-86.42365	1111.85688	844.41336	-104.15229	1158.43173	738.28019	-107.08798	1130.04974	823.67299	-469.70761	1111.99641	685.26529	-449.50854	1020.57202	834.11466	-480.25784	997.94978	698.64945	-465.53259	1176.20080	1080.79169	-167.39374	996.32573	1081.86673	-234.14103	1180.70542	1063.04596	-421.10990	996.00245	1085.03935	-343.80302	1130.16524	1614.75356	-387.50297	1180.93627	1566.79186	-203.31032	1174.48401	1510.65513	-540.31319	1230.24270	1510.74594	-336.51842	1229.04207	1498.74694	-391.69383	1137.45983	1420.55980	-117.48619	1004.63849	1247.24962	-148.88321	1013.67065	1271.63560	-68.30388	1032.90512	1105.33613	-14.18630	1057.79695	1010.11743	-5.84676	1014.67240	1025.77890	9.66348	1172.42672	1383.87926	-614.47936	1174.25950	1140.10286	-553.79153	1184.41405	1156.82932	-636.22208	1250.94789	1125.07801	-657.84738	1394.34689	1018.26960	-662.38030	1365.93302	989.21595	-673.36257	1101.53113	960.39568	-181.08381	1095.69880	955.66492	-387.90165	1125.37772	981.84670	-205.41944	1124.88339	986.70099	-373.23780	
110	1.09000000	1275.21400	558.97658	-130.45518	1342.66540	486.67092	-136.52802	1403.55959	148.84409	-161.77749	1346.96723	75.12468	-213.09636	1540.49265	109.60958	-121.34624	1584.70871	162.99457	-180.71162	994.04698	545.42786	-435.98375	969.23559	454.58392	-451.85469	887.25630	131.29540	-363.95280	814.81564	85.50756	-293.78273	984.48751	46.70547	-412.73432	1056.99451	70.08716	-362.62301	1363.60714	378.38087	-113.10695	1274.99063	479.91453	-101.79308	1281.80354	363.91952	-98.52988	886.26038	478.96706	-423.92212	871.54733	358.62767	-410.93653	1226.20768	881.90831	-120.71415	1265.50010	778.76578	-121.07461	1221.96163	737.23106	-88.46723	1122.95070	841.26057	-106.47277	1168.01198	734.67026	-109.61445	1140.39922	822.04174	-471.13531	1121.37947	683.69771	-451.17621	1030.87918	833.27694	-481.80348	1007.50780	697.98290	-467.30270	1188.55647	1077.83984	-168.08395	1008.51493	1078.75225	-234.30533	1192.55401	1061.38282	-422.08227	1007.99591	1082.62478	-343.97666	1140.14321	1613.10896	-384.74581	1190.29331	1563.46959	-200.68368	1186.27699	1510.44977	-538.07940	1240.54000	1509.07663	-334.07378	1239.70826	1497.53251	-389.35359	1146.77768	1416.32199	-116.22384	1014.95614	1242.57686	-149.91834	1022.86003	1266.66081	-69.17481	1041.22853	1100.14742	-15.61529	1066.00204	1004.95201	-7.19155	1022.61807	1020.44960	7.49081	1186.81499	1384.98140	-613.42887	1190.56645	1140.26590	-557.53355	1201.62405	1158.82641	-639.55924	1268.90905	1127.85663	-660.66632	1413.14351	1022.20123	-664.99336	1385.15305	993.17918	-677.00343	1114.19983	957.30817	-182.24588	1107.82864	953.66141	-389.07094	1137.91932	978.74599	-206.67670	1137.12566	984.67202	-374.58349	
111	1.10000000	1284.91786	555.27236	-132.97406	1352.93694	483.94968	-138.88218	1420.14256	146.65496	-164.34495	1364.93415	71.96630	-215.03680	1558.12777	110.69212	-123.92505	1600.90553	165.13130	-183.38997	1002.33831	544.80269	-437.81299	976.29443	454.11014	-453.66681	888.27669	132.26022	-365.01495	815.21535	87.11317	-294.66400	984.63596	46.39498	-413.17544	1057.34867	69.68862	-363.07593	1375.52454	375.92925	-115.43812	1285.22611	476.13467	-104.45384	1293.78509	360.20014	-101.26966	893.59542	479.95818	-426.04470	876.73335	359.81269	-412.89375	1238.25447	877.97726	-122.18749	1276.41400	774.36503	-122.79790	1232.32183	733.23824	-90.39704	1134.51701	838.38418	-108.51802	1178.35009	731.38304	-111.90514	1150.91457	820.46687	-472.50903	1130.98725	682.17423	-452.96729	1041.31312	832.49874	-483.17519	1017.36641	697.37822	-468.98050	1200.92848	1075.04663	-168.69948	1020.82316	1075.81387	-234.36110	1204.56554	1059.78789	-422.94092	1020.14976	1080.31618	-344.05501	1150.21907	1611.49895	-382.02024	1199.85655	1560.35458	-198.14020	1197.99568	1510.18923	-535.81763	1250.93647	1507.46588	-331.70769	1250.42860	1496.33911	-387.07327	1156.42454	1412.31033	-114.99154	1025.60469	1238.14046	-150.87506	1032.50161	1261.91021	-69.94737	1050.09777	1095.18126	-17.01792	1074.67260	1000.00499	-8.53310	1031.17003	1015.34404	5.40123	1201.04730	1386.06977	-612.15960	1206.58886	1140.52859	-561.01948	1218.49755	1160.90220	-642.62975	1286.49940	1130.64732	-663.24010	1431.37074	1025.91513	-667.33211	1403.77010	996.97584	-680.37378	1126.93572	954.39200	-183.26396	1120.07819	951.74933	-390.09084	1150.49657	975.84588	-207.81695	1149.46647	982.73709	-375.79248	
112	1.11000000	1295.34704	552.01463	-135.22151	1363.46121	481.05560	-141.01110	1433.97878	144.07302	-167.14274	1379.75605	69.06202	-217.59740	1572.67383	110.25958	-126.62442	1614.53012	165.44305	-186.01894	1010.93521	544.23423	-439.61123	983.65000	453.71262	-455.46026	889.45756	133.41966	-366.15333	815.71568	89.04574	-295.60427	984.82891	46.07403	-413.64366	1057.73493	69.23994	-363.54884	1386.82115	373.13755	-117.73156	1295.67740	472.65218	-106.93152	1305.04909	356.73951	-104.00976	901.26792	481.09305	-428.04849	882.19319	361.22574	-414.77858	1250.66493	874.63695	-123.69931	1287.96834	770.67210	-124.61536	1243.58515	729.85654	-92.19508	1146.58797	835.81019	-110.18973	1189.59117	728.48165	-113.86357	1161.60848	818.95041	-473.77052	1140.83477	680.70141	-454.81241	1051.91628	831.77400	-484.34627	1027.51731	696.82877	-470.52221	1213.37325	1072.44967	-169.22170	1033.25414	1073.07429	-234.38389	1216.75647	1058.24010	-423.68286	1032.47004	1078.13701	-344.09995	1160.40023	1609.96400	-379.34141	1209.62611	1557.50842	-195.66965	1209.64051	1509.93689	-533.54434	1261.45105	1505.96721	-329.40941	1261.22658	1495.22656	-384.84690	1166.39738	1408.59430	-113.77677	1036.59552	1234.01240	-151.73331	1042.62467	1257.44321	-70.60847	1059.53437	1090.49836	-18.36066	1083.87641	995.34655	-9.84533	1040.34586	1010.52760	3.41515	1215.02003	1387.16407	-610.75331	1222.27585	1140.92562	-564.22622	1235.00609	1163.02893	-645.38861	1303.64778	1133.45471	-665.53305	1448.99092	1029.43099	-669.40226	1421.74378	1000.62304	-683.46553	1139.73622	951.68352	-184.13964	1132.47190	949.92287	-390.96459	1163.14611	973.14190	-208.82373	1161.94605	980.89370	-376.86182	
